<svg width="30" height="31" viewBox="0 0 30 31" fill="none" xmlns="http://www.w3.org/2000/svg">
<path d="M29.7126 8.70928L22.9858 0.454397C22.7513 0.164088 22.4057 0 22.0354 0H7.95844C7.59433 0 7.24256 0.164088 7.00804 0.454397L0.287393 8.70928C-0.0705484 9.14475 -0.095234 9.76954 0.219507 10.2366L13.9879 30.4572C14.2162 30.798 14.5989 31 15 31C15.4011 31 15.7838 30.798 16.0121 30.4572L29.7805 10.2366C30.0952 9.76954 30.0705 9.14475 29.7126 8.70928ZM26.127 8.25489H22.0477L19.7396 2.53074H21.4615L26.1332 8.25489H26.127ZM7.95227 10.7793L13.0252 24.6321L3.59526 10.7793H7.95227ZM19.4064 10.7793L15 22.8145L10.5936 10.7793H19.4125H19.4064ZM10.6183 8.25489L12.9264 2.53074H17.0612L19.3693 8.25489H10.6121H10.6183ZM22.0416 10.7793H26.3986L16.9625 24.6321L22.0354 10.7793H22.0416ZM8.53855 2.52443H10.2604L7.94609 8.24857H3.8668L8.53855 2.52443Z" fill="white"/>
</svg>
