<svg width="30" height="31" viewBox="0 0 30 31" fill="none" xmlns="http://www.w3.org/2000/svg">
<path d="M24.448 0H5.55802C2.49445 0 0 2.48839 0 5.55197V24.448C0 27.5116 2.49445 30 5.55802 30H18.339L18.2846 30.1514L18.8113 30.0363C18.8718 30.0242 18.9324 30.0121 18.9929 30H24.448C27.5116 30 30 27.5055 30 24.448V5.55197C30.006 2.48839 27.5116 0 24.448 0ZM2.4218 24.448V15.3723C3.99596 14.6095 5.7336 14.2038 7.4894 14.2038C13.9011 14.2038 19.114 19.4228 19.114 25.8284C19.114 26.4157 19.0595 26.997 18.9687 27.5782H5.55802C3.83249 27.5782 2.4218 26.1736 2.4218 24.448ZM27.5842 24.448C27.5842 26.1736 26.1796 27.5782 24.4541 27.5782H22.0444C22.117 26.997 22.1534 26.4157 22.1534 25.8284C22.1534 17.7457 15.5782 11.1766 7.50151 11.1766C5.75176 11.1766 4.05651 11.4854 2.4339 12.0908V5.55802C2.4339 3.83249 3.83855 2.4218 5.57013 2.4218H24.4662C26.1917 2.4218 27.5964 3.82644 27.5964 5.55802V24.4541L27.5842 24.448Z" fill="white"/>
<path d="M23.2553 5.44904C21.7841 5.44904 20.5853 6.64177 20.5853 8.11906C20.5853 9.59636 21.778 10.7891 23.2553 10.7891C24.7326 10.7891 25.9253 9.59636 25.9253 8.11906C25.9253 6.64177 24.7326 5.44904 23.2553 5.44904Z" fill="white"/>
</svg>
