<svg width="78" height="78" viewBox="0 0 78 78" fill="none" xmlns="http://www.w3.org/2000/svg">
<path d="M27.1309 2H50.8691C55.6504 2 59.1165 2.00179 61.8438 2.22461C64.5476 2.44552 66.3492 2.8734 67.834 3.62988C70.648 5.06374 72.936 7.35177 74.3701 10.166C75.1266 11.6507 75.5545 13.4524 75.7754 16.1562C75.9982 18.8835 76 22.3496 76 27.1309V50.8691C76 55.6504 75.9982 59.1165 75.7754 61.8438C75.5545 64.5476 75.1266 66.3493 74.3701 67.834C72.9361 70.6482 70.6482 72.9361 67.834 74.3701C66.3493 75.1266 64.5476 75.5545 61.8438 75.7754C59.1165 75.9982 55.6504 76 50.8691 76H27.1309C22.3496 76 18.8835 75.9982 16.1562 75.7754C13.4524 75.5545 11.6507 75.1266 10.166 74.3701C7.35177 72.936 5.06374 70.648 3.62988 67.834C2.8734 66.3492 2.44552 64.5476 2.22461 61.8438C2.00179 59.1165 2 55.6504 2 50.8691V27.1309C2 22.3496 2.00179 18.8835 2.22461 16.1562C2.44552 13.4524 2.87341 11.6507 3.62988 10.166C5.06379 7.35193 7.35193 5.06379 10.166 3.62988C11.6507 2.87341 13.4524 2.44552 16.1562 2.22461C18.8835 2.00179 22.3496 2 27.1309 2Z" stroke="white" stroke-width="4"/>
</svg>
