<svg width="20" height="20" viewBox="0 0 20 20" fill="none" xmlns="http://www.w3.org/2000/svg">
<g clip-path="url(#clip0_25_5155)">
<path d="M1.79195 20.04C1.23595 19.86 1.04395 19.448 1.04395 18.896C1.04395 16.364 1.04395 13.832 1.04395 11.3C1.04395 11.012 1.04395 11.008 1.31995 11.008C3.81995 11.008 6.31994 11.008 8.82394 11.008C8.98794 11.008 9.09194 11.02 9.09194 11.232C9.08794 14.148 9.08794 17.064 9.08794 19.98C9.08794 20 9.08794 20.02 9.08394 20.04H1.79195Z" fill="black"/>
<path d="M11.0321 20.04C11.0321 19.968 11.0281 19.896 11.0281 19.824C11.0281 16.988 11.0281 14.148 11.0281 11.312C11.0281 11.112 11.1294 11.012 11.3321 11.012C13.8121 11.012 16.2961 11.012 18.7761 11.012C19.0681 11.012 19.0721 11.012 19.0721 11.304C19.0721 13.836 19.0721 16.368 19.0721 18.9C19.0721 19.452 18.8801 19.864 18.3241 20.044H11.0321V20.04Z" fill="black"/>
<path d="M20.04 8.31999C19.86 8.87599 19.448 9.07199 18.9 9.06799C16.372 9.06799 13.844 9.06799 11.32 9.06799C11.032 9.06799 11.032 9.06799 11.032 8.77199C11.032 7.61199 11.032 6.45599 11.032 5.29599C11.032 5.02399 11.032 5.02399 11.304 5.02399C13.864 5.02399 16.424 5.02399 18.984 5.02399C19.572 5.02399 19.848 5.22399 20.044 5.77999V8.31999H20.04Z" fill="black"/>
<path d="M14.424 0.0399955C15.228 0.187995 15.908 0.551996 16.404 1.212C17.012 2.02 17.196 2.92 16.908 3.904C16.872 4.028 16.804 4.068 16.684 4.068C16 4.068 15.32 4.068 14.636 4.068C14.452 4.068 14.432 4.032 14.528 3.88C14.58 3.796 14.64 3.72 14.7 3.644C15.02 3.24 14.988 2.704 14.624 2.352C14.244 1.984 13.688 1.964 13.304 2.328C12.88 2.728 12.448 3.128 12.068 3.572C11.732 3.964 11.364 4.112 10.852 4.08C10.132 4.036 9.41205 4.064 8.68805 4.072C8.52405 4.072 8.40805 4.02 8.29605 3.908C7.80405 3.408 7.31205 2.908 6.80805 2.416C6.35605 1.972 5.78005 1.96 5.37205 2.372C5.02405 2.724 4.99605 3.236 5.30405 3.632C5.35605 3.7 5.42005 3.756 5.47205 3.82C5.52405 3.888 5.65605 3.932 5.61205 4.028C5.57605 4.108 5.46005 4.068 5.38005 4.068C4.74805 4.068 4.12005 4.068 3.48805 4.072C3.31605 4.072 3.23605 4.02 3.18805 3.848C2.71205 2.156 3.83205 0.375996 5.58005 0.0679955C5.61605 0.0599955 5.65605 0.0479955 5.69205 0.0399955C5.97605 0.0399955 6.26405 0.0399955 6.54805 0.0399955C7.35205 0.175995 7.98805 0.595996 8.53605 1.18C8.98005 1.652 9.45605 2.1 9.90805 2.564C10.02 2.68 10.092 2.676 10.208 2.564C10.708 2.08 11.224 1.616 11.716 1.12C12.252 0.583996 12.836 0.151995 13.604 0.0359955H14.424V0.0399955Z" fill="black"/>
<path d="M4.94806 5.02399C6.24006 5.02399 7.53206 5.02399 8.82406 5.02399C9.08406 5.02399 9.08406 5.02399 9.08806 5.28399C9.08806 6.45999 9.08806 7.63999 9.08806 8.81599C9.08806 8.99999 9.03606 9.06799 8.84406 9.06799C6.28006 9.06399 3.71206 9.06799 1.14806 9.06399C0.432059 9.06399 0.0600586 8.67599 0.0600586 7.95599C0.0600586 7.33599 0.0600586 6.71999 0.0600586 6.09999C0.0600586 5.38799 0.432059 5.02399 1.14406 5.01999C2.41206 5.01999 3.67606 5.01999 4.94406 5.01999L4.94806 5.02399Z" fill="black"/>
</g>
<defs>
<clipPath id="clip0_25_5155">
<rect width="20" height="20" fill="white"/>
</clipPath>
</defs>
</svg>
