<svg width="184" height="184" viewBox="0 0 184 184" fill="none" xmlns="http://www.w3.org/2000/svg">
<g clip-path="url(#clip0_203_5792)">
<path d="M102.245 88.2354L23.1841 167.3C20.6338 169.85 16.5012 169.85 13.9546 167.3L1.90999 155.259C-0.640246 152.709 -0.640246 148.576 1.90999 146.03L80.9711 66.9686C83.5214 64.4184 87.654 64.4184 90.2006 66.9686L102.242 79.0096C104.795 81.5525 104.795 85.6851 102.245 88.2354Z" fill="#727272"/>
<path d="M102.543 92.8575L62.6816 132.719V161.817C62.6816 169.221 68.6837 175.227 76.0916 175.227H170.59C177.994 175.227 184 169.225 184 161.817V92.8575H102.543ZM145.791 113.142C145.371 117.241 144.79 121.319 144.168 125.389C142.887 133.805 141.441 142.192 139.921 150.564C139.66 152.006 139.332 153.434 138.549 154.711C138.313 155.09 138.048 155.41 137.754 155.664C137.128 155.881 136.495 156.087 135.855 156.279C133.864 156.29 132.421 155.373 131.005 154.42C128.013 152.404 125.036 150.361 122.047 148.337C120.329 147.171 118.588 146.037 116.877 144.86C116.178 144.377 115.475 143.881 114.864 143.296C113.477 141.971 113.396 140.572 114.724 139.178C116.413 137.404 118.191 135.711 119.965 134.022C123.516 130.64 127.17 127.368 130.592 123.858C131.019 123.42 131.402 122.938 131.766 122.448C132.013 122.121 132.002 121.742 131.755 121.4C131.527 121.083 131.189 121.046 130.835 121.098C130.243 121.186 129.764 121.528 129.282 121.845C122.842 126.121 116.296 130.246 110.014 134.74C106.128 137.518 102.256 138.442 97.7557 136.764C95.7501 136.016 93.6709 135.464 91.6248 134.817C91.3341 134.725 91.0434 134.618 90.7674 134.482C90.0277 134.118 89.2402 133.757 89.1556 132.8C89.0709 131.843 89.7591 131.324 90.4546 130.876C92.0996 129.819 93.958 129.212 95.7317 128.439C108.748 122.768 121.742 117.046 134.942 111.806C137.216 110.904 139.483 109.929 141.916 109.506C144.749 109.016 146.081 110.301 145.791 113.142Z" fill="#727272"/>
<path d="M41.1867 71.8042C44.7084 69.3643 48.5872 68.2051 52.8707 68.816C58.1257 69.563 62.1333 72.2053 64.7019 76.9267C65.022 77.5155 64.9337 77.9203 64.4848 78.3693C61.9492 80.8864 59.4321 83.4256 56.8929 85.9427C56.2085 86.6198 56.006 86.5536 55.8036 85.641C55.6932 85.1442 55.616 84.6363 55.5571 84.1285C55.2369 81.4421 53.1504 79.58 50.4971 79.6242C47.7334 79.672 45.599 81.6555 45.518 84.4266C45.4334 87.492 45.312 90.5722 45.5475 93.6229C45.7536 96.3056 44.9403 98.2229 42.9273 100.004C40.1011 102.503 37.5288 105.288 34.8865 107.986C34.2867 108.597 33.6611 108.84 32.8147 108.829C29.1347 108.788 25.4547 108.77 21.7747 108.814C18.4516 108.854 16.2841 110.937 16.2988 113.966C16.3099 116.549 18.1057 118.555 20.7112 118.886C21.1491 118.941 21.598 118.908 22.036 118.963C22.4812 119.019 23.1216 118.698 23.3276 119.214C23.5006 119.644 22.9081 119.928 22.61 120.229C20.2843 122.573 17.9291 124.884 15.6217 127.251C14.9961 127.895 14.4846 127.994 13.6787 127.541C5.63788 123.044 3.20173 112.295 8.52301 104.681C8.63709 104.516 8.73277 104.335 8.83581 104.159C9.89565 103.099 10.9555 102.039 12.0116 100.983C15.4892 98.5173 19.4011 97.7077 23.6073 97.8365C27.0113 97.9395 30.419 97.8402 33.823 97.8843C34.6731 97.8954 34.9233 97.623 34.9344 96.784C34.9859 93.1408 35.1809 89.4976 35.1772 85.8581C35.1699 81.891 35.7256 78.1227 38.1507 74.8365C39.1627 73.8245 40.1747 72.8162 41.1867 71.8042Z" fill="#727272"/>
<path d="M126.75 10.2488L130.276 17.3917C130.662 18.1718 131.406 18.7128 132.263 18.8379L140.146 19.9824C142.313 20.2989 143.178 22.9595 141.61 24.4867L135.906 30.0472C135.284 30.6544 135.001 31.5266 135.148 32.384L136.495 40.2334C136.867 42.3899 134.6 44.0386 132.664 43.0192L125.613 39.3134C124.844 38.9086 123.924 38.9086 123.155 39.3134L116.104 43.0192C114.165 44.0386 111.902 42.3936 112.273 40.2334L113.616 32.384C113.764 31.5266 113.48 30.6544 112.858 30.0472L107.154 24.4867C105.587 22.9595 106.451 20.2952 108.619 19.9824L116.502 18.8379C117.363 18.7128 118.106 18.1718 118.489 17.3917L122.014 10.2488C122.982 8.28368 125.782 8.28368 126.75 10.2488Z" fill="#727272"/>
<path d="M89.9134 25.289L93.4388 32.4318C93.8252 33.212 94.5686 33.753 95.426 33.8781L103.309 35.0226C105.476 35.339 106.341 37.9997 104.773 39.5269L99.0692 45.0874C98.4473 45.6946 98.164 46.5667 98.3112 47.4242L99.658 55.2736C100.03 57.4301 97.7628 59.0787 95.8272 58.0594L88.7763 54.3536C88.0072 53.9488 87.0872 53.9488 86.318 54.3536L79.2672 58.0594C77.3278 59.0787 75.0646 57.4338 75.4363 55.2736L76.7832 47.4242C76.9304 46.5667 76.647 45.6946 76.0251 45.0874L70.3211 39.5269C68.7534 37.9997 69.6182 35.3354 71.7857 35.0226L79.6683 33.8781C80.5294 33.753 81.2728 33.212 81.6555 32.4318L85.1809 25.289C86.1451 23.3238 88.9456 23.3238 89.9134 25.289Z" fill="#727272"/>
<path d="M126.169 90.16H149.607L155.116 84.7909C156.683 83.2637 155.819 80.5994 153.651 80.2866L145.769 79.1421C144.907 79.017 144.164 78.476 143.781 77.6958L140.256 70.553C139.288 68.5915 136.488 68.5915 135.52 70.553L131.994 77.6958C131.608 78.476 130.865 79.017 130.007 79.1421L122.125 80.2866C119.957 80.603 119.092 83.2637 120.66 84.7909L126.169 90.16Z" fill="#727272"/>
</g>
<defs>
<clipPath id="clip0_203_5792">
<rect width="184" height="184" fill="white"/>
</clipPath>
</defs>
</svg>
