<svg width="14" height="14" viewBox="0 0 14 14" fill="none" xmlns="http://www.w3.org/2000/svg">
<path d="M1.2133 13.9972C0.823784 13.8713 0.689275 13.583 0.689275 13.1967C0.689275 11.425 0.689275 9.65334 0.689275 7.88165C0.689275 7.68013 0.689275 7.67733 0.882631 7.67733C2.63404 7.67733 4.38544 7.67733 6.13965 7.67733C6.25455 7.67733 6.32741 7.68573 6.32741 7.83407C6.3246 9.87445 6.3246 11.9148 6.3246 13.9552C6.3246 13.9692 6.3246 13.9832 6.3218 13.9972H1.2133Z" fill="url(#paint0_linear_29_5499)"/>
<path d="M7.68659 13.9972C7.68659 13.9468 7.68379 13.8964 7.68379 13.8461C7.68379 11.8617 7.68379 9.87445 7.68379 7.89004C7.68379 7.7501 7.75478 7.68013 7.89676 7.68013C9.63416 7.68013 11.3744 7.68013 13.1118 7.68013C13.3163 7.68013 13.3191 7.68013 13.3191 7.88445C13.3191 9.65614 13.3191 11.4278 13.3191 13.1995C13.3191 13.5858 13.1846 13.8741 12.7951 14H7.68659V13.9972Z" fill="url(#paint1_linear_29_5499)"/>
<path d="M13.9972 5.79648C13.8711 6.18552 13.5825 6.32266 13.1986 6.31987C11.4275 6.31987 9.65651 6.31987 7.88829 6.31987C7.68653 6.31987 7.68652 6.31987 7.68652 6.11275C7.68652 5.30107 7.68652 4.4922 7.68652 3.68052C7.68652 3.4902 7.68652 3.4902 7.87708 3.4902C9.67052 3.4902 11.464 3.4902 13.2574 3.4902C13.6693 3.4902 13.8627 3.63014 14 4.01919V5.79648H13.9972Z" fill="url(#paint2_linear_29_5499)"/>
<path d="M10.0629 0.00279868C10.6261 0.106357 11.1025 0.361056 11.45 0.822871C11.8759 1.38825 12.0048 2.01799 11.8031 2.70652C11.7779 2.79328 11.7302 2.82127 11.6462 2.82127C11.167 2.82127 10.6906 2.82127 10.2114 2.82127C10.0825 2.82127 10.0685 2.79608 10.1357 2.68972C10.1722 2.63095 10.2142 2.57777 10.2562 2.52459C10.4804 2.2419 10.458 1.86685 10.203 1.62055C9.93678 1.36305 9.54727 1.34906 9.27825 1.60376C8.98121 1.88365 8.67857 2.16353 8.41236 2.47421C8.17697 2.7485 7.91916 2.85206 7.56047 2.82967C7.05607 2.79888 6.55166 2.81847 6.04445 2.82407C5.92956 2.82407 5.84829 2.78769 5.76983 2.70932C5.42515 2.35946 5.08048 2.0096 4.72739 1.66533C4.41074 1.35466 4.00721 1.34626 3.72138 1.63455C3.47759 1.88085 3.45797 2.2391 3.67375 2.51619C3.71018 2.56378 3.75501 2.60296 3.79144 2.64774C3.82787 2.69532 3.92034 2.72611 3.88952 2.79328C3.8643 2.84926 3.78304 2.82127 3.72699 2.82127C3.28423 2.82127 2.84428 2.82127 2.40152 2.82407C2.28103 2.82407 2.22498 2.78769 2.19135 2.66733C1.85789 1.48341 2.64252 0.237905 3.8671 0.0223908C3.89232 0.016793 3.92034 0.00839644 3.94556 0.00279868C4.14452 0.00279868 4.34629 0.00279868 4.54525 0.00279868C5.1085 0.0979606 5.55406 0.391844 5.93797 0.800481C6.24902 1.13075 6.58248 1.44422 6.89914 1.76889C6.9776 1.85006 7.02804 1.84726 7.10931 1.76889C7.45959 1.43023 7.82108 1.10556 8.16576 0.758496C8.54126 0.383446 8.95039 0.0811675 9.48842 0H10.0629V0.00279868Z" fill="url(#paint3_linear_29_5499)"/>
<path d="M3.42435 3.4902C4.32948 3.4902 5.23461 3.4902 6.13973 3.4902C6.32188 3.4902 6.32188 3.4902 6.32468 3.67213C6.32468 4.495 6.32468 5.32067 6.32468 6.14354C6.32468 6.27229 6.28825 6.31987 6.15375 6.31987C4.3575 6.31707 2.55846 6.31987 0.762213 6.31707C0.26061 6.31707 0 6.04558 0 5.54178C0 5.10795 0 4.67692 0 4.2431C0 3.7449 0.260609 3.4902 0.75941 3.4874C1.64772 3.4874 2.53324 3.4874 3.42155 3.4874L3.42435 3.4902Z" fill="url(#paint4_linear_29_5499)"/>
<defs>
<linearGradient id="paint0_linear_29_5499" x1="13.8916" y1="7.03656" x2="1.8216e-05" y2="7.03656" gradientUnits="userSpaceOnUse">
<stop stop-color="#138AC8"/>
<stop offset="1" stop-color="#45A3E6"/>
</linearGradient>
<linearGradient id="paint1_linear_29_5499" x1="13.8916" y1="7.03656" x2="1.8216e-05" y2="7.03656" gradientUnits="userSpaceOnUse">
<stop stop-color="#138AC8"/>
<stop offset="1" stop-color="#45A3E6"/>
</linearGradient>
<linearGradient id="paint2_linear_29_5499" x1="13.8916" y1="7.03656" x2="1.8216e-05" y2="7.03656" gradientUnits="userSpaceOnUse">
<stop stop-color="#138AC8"/>
<stop offset="1" stop-color="#45A3E6"/>
</linearGradient>
<linearGradient id="paint3_linear_29_5499" x1="13.8916" y1="7.03656" x2="1.8216e-05" y2="7.03656" gradientUnits="userSpaceOnUse">
<stop stop-color="#138AC8"/>
<stop offset="1" stop-color="#45A3E6"/>
</linearGradient>
<linearGradient id="paint4_linear_29_5499" x1="13.8916" y1="7.03656" x2="1.8216e-05" y2="7.03656" gradientUnits="userSpaceOnUse">
<stop stop-color="#138AC8"/>
<stop offset="1" stop-color="#45A3E6"/>
</linearGradient>
</defs>
</svg>
