<svg width="35" height="59" viewBox="0 0 35 59" fill="none" xmlns="http://www.w3.org/2000/svg">
<path d="M10.2891 49.1875V53.5312C10.1276 53.7448 9.875 53.9792 9.53125 54.2344C9.19271 54.4844 8.74219 54.7005 8.17969 54.8828C7.61719 55.0651 6.91667 55.1562 6.07812 55.1562C5.36458 55.1562 4.71094 55.0365 4.11719 54.7969C3.52344 54.5521 3.01042 54.1953 2.57812 53.7266C2.15104 53.2578 1.82031 52.6875 1.58594 52.0156C1.35156 51.3385 1.23438 50.5677 1.23438 49.7031V48.9141C1.23438 48.0547 1.34115 47.2891 1.55469 46.6172C1.77344 45.9401 2.08594 45.3672 2.49219 44.8984C2.89844 44.4297 3.38802 44.0755 3.96094 43.8359C4.53906 43.5911 5.19271 43.4688 5.92188 43.4688C6.85417 43.4688 7.625 43.625 8.23438 43.9375C8.84896 44.2448 9.32292 44.6719 9.65625 45.2188C9.98958 45.7656 10.2005 46.3906 10.2891 47.0938H8.36719C8.30469 46.6979 8.18229 46.3438 8 46.0312C7.82292 45.7188 7.56771 45.474 7.23438 45.2969C6.90625 45.1146 6.47917 45.0234 5.95312 45.0234C5.5 45.0234 5.10156 45.1094 4.75781 45.2812C4.41406 45.4531 4.1276 45.7057 3.89844 46.0391C3.67448 46.3724 3.50521 46.7786 3.39062 47.2578C3.27604 47.737 3.21875 48.2839 3.21875 48.8984V49.7031C3.21875 50.3281 3.28385 50.8828 3.41406 51.3672C3.54948 51.8516 3.74219 52.2604 3.99219 52.5938C4.2474 52.9271 4.55729 53.1797 4.92188 53.3516C5.28646 53.5182 5.69792 53.6016 6.15625 53.6016C6.60417 53.6016 6.97135 53.5651 7.25781 53.4922C7.54427 53.4141 7.77083 53.3229 7.9375 53.2188C8.10938 53.1094 8.24219 53.0052 8.33594 52.9062V50.6484H5.96875V49.1875H10.2891ZM14.2891 46.5469V55H12.3984V46.5469H14.2891ZM12.2734 44.3281C12.2734 44.0417 12.3672 43.8047 12.5547 43.6172C12.7474 43.4245 13.013 43.3281 13.3516 43.3281C13.6849 43.3281 13.9479 43.4245 14.1406 43.6172C14.3333 43.8047 14.4297 44.0417 14.4297 44.3281C14.4297 44.6094 14.3333 44.8438 14.1406 45.0312C13.9479 45.2188 13.6849 45.3125 13.3516 45.3125C13.013 45.3125 12.7474 45.2188 12.5547 45.0312C12.3672 44.8438 12.2734 44.6094 12.2734 44.3281ZM18.8984 55H17.0156V45.7344C17.0156 45.1042 17.1328 44.5755 17.3672 44.1484C17.6068 43.7161 17.9479 43.3906 18.3906 43.1719C18.8333 42.9479 19.3568 42.8359 19.9609 42.8359C20.1484 42.8359 20.3333 42.849 20.5156 42.875C20.6979 42.8958 20.875 42.9297 21.0469 42.9766L21 44.4297C20.8958 44.4036 20.7812 44.3854 20.6562 44.375C20.5365 44.3646 20.4062 44.3594 20.2656 44.3594C19.9792 44.3594 19.7318 44.4141 19.5234 44.5234C19.3203 44.6276 19.1641 44.7812 19.0547 44.9844C18.9505 45.1875 18.8984 45.4375 18.8984 45.7344V55ZM20.6406 46.5469V47.9219H15.7188V46.5469H20.6406ZM25.8828 46.5469V47.9219H21.1172V46.5469H25.8828ZM22.4922 44.4766H24.375V52.6641C24.375 52.9245 24.4115 53.125 24.4844 53.2656C24.5625 53.401 24.6693 53.4922 24.8047 53.5391C24.9401 53.5859 25.099 53.6094 25.2812 53.6094C25.4115 53.6094 25.5365 53.6016 25.6562 53.5859C25.776 53.5703 25.8724 53.5547 25.9453 53.5391L25.9531 54.9766C25.7969 55.0234 25.6146 55.0651 25.4062 55.1016C25.2031 55.138 24.9688 55.1562 24.7031 55.1562C24.2708 55.1562 23.888 55.0807 23.5547 54.9297C23.2214 54.7734 22.9609 54.5208 22.7734 54.1719C22.5859 53.8229 22.4922 53.3594 22.4922 52.7812V44.4766ZM32.0781 52.7109C32.0781 52.5234 32.0312 52.3542 31.9375 52.2031C31.8438 52.0469 31.6641 51.9062 31.3984 51.7812C31.138 51.6562 30.7526 51.5417 30.2422 51.4375C29.7943 51.3385 29.3828 51.2214 29.0078 51.0859C28.638 50.9453 28.3203 50.776 28.0547 50.5781C27.7891 50.3802 27.5833 50.1458 27.4375 49.875C27.2917 49.6042 27.2188 49.2917 27.2188 48.9375C27.2188 48.5938 27.2943 48.2682 27.4453 47.9609C27.5964 47.6536 27.8125 47.3828 28.0938 47.1484C28.375 46.9141 28.7161 46.7292 29.1172 46.5938C29.5234 46.4583 29.9766 46.3906 30.4766 46.3906C31.1849 46.3906 31.7917 46.5104 32.2969 46.75C32.8073 46.9844 33.1979 47.3047 33.4688 47.7109C33.7396 48.112 33.875 48.5651 33.875 49.0703H31.9922C31.9922 48.8464 31.9349 48.638 31.8203 48.4453C31.7109 48.2474 31.5443 48.0885 31.3203 47.9688C31.0964 47.8438 30.8151 47.7812 30.4766 47.7812C30.1536 47.7812 29.8854 47.8333 29.6719 47.9375C29.4635 48.0365 29.3073 48.1667 29.2031 48.3281C29.1042 48.4896 29.0547 48.6667 29.0547 48.8594C29.0547 49 29.0807 49.1276 29.1328 49.2422C29.1901 49.3516 29.2839 49.4531 29.4141 49.5469C29.5443 49.6354 29.7214 49.7188 29.9453 49.7969C30.1745 49.875 30.4609 49.9505 30.8047 50.0234C31.4505 50.1589 32.0052 50.3333 32.4688 50.5469C32.9375 50.7552 33.2969 51.026 33.5469 51.3594C33.7969 51.6875 33.9219 52.1042 33.9219 52.6094C33.9219 52.9844 33.8411 53.3281 33.6797 53.6406C33.5234 53.9479 33.2943 54.2161 32.9922 54.4453C32.6901 54.6693 32.3281 54.8438 31.9062 54.9688C31.4896 55.0938 31.0208 55.1562 30.5 55.1562C29.7344 55.1562 29.0859 55.0208 28.5547 54.75C28.0234 54.474 27.6198 54.1224 27.3438 53.6953C27.0729 53.263 26.9375 52.8151 26.9375 52.3516H28.7578C28.7786 52.7005 28.875 52.9792 29.0469 53.1875C29.224 53.3906 29.4427 53.5391 29.7031 53.6328C29.9688 53.7214 30.2422 53.7656 30.5234 53.7656C30.862 53.7656 31.1458 53.7214 31.375 53.6328C31.6042 53.5391 31.7786 53.4141 31.8984 53.2578C32.0182 53.0964 32.0781 52.9141 32.0781 52.7109Z" fill="#727272"/>
<g clip-path="url(#clip0_25_5086)">
<path d="M5.68792 30.06C4.85392 29.79 4.56592 29.172 4.56592 28.344C4.56592 24.546 4.56592 20.748 4.56592 16.95C4.56592 16.518 4.56592 16.512 4.97992 16.512C8.72992 16.512 12.4799 16.512 16.2359 16.512C16.4819 16.512 16.6379 16.53 16.6379 16.848C16.6319 21.222 16.6319 25.596 16.6319 29.97C16.6319 30 16.6319 30.03 16.6259 30.06H5.68792Z" fill="#727272"/>
<path d="M19.548 30.06C19.548 29.952 19.542 29.844 19.542 29.736C19.542 25.482 19.542 21.222 19.542 16.968C19.542 16.668 19.694 16.518 19.998 16.518C23.718 16.518 27.444 16.518 31.164 16.518C31.602 16.518 31.608 16.518 31.608 16.956C31.608 20.754 31.608 24.552 31.608 28.35C31.608 29.178 31.32 29.796 30.486 30.066H19.548V30.06Z" fill="#727272"/>
<path d="M33.0601 12.48C32.7901 13.314 32.1721 13.608 31.3501 13.602C27.5581 13.602 23.7661 13.602 19.9801 13.602C19.5481 13.602 19.5481 13.602 19.5481 13.158C19.5481 11.418 19.5481 9.68401 19.5481 7.94401C19.5481 7.53601 19.5481 7.53601 19.9561 7.53601C23.7961 7.53601 27.6361 7.53601 31.4761 7.53601C32.3581 7.53601 32.7721 7.83601 33.0661 8.67001V12.48H33.0601Z" fill="#727272"/>
<path d="M24.6361 0.0600161C25.8421 0.282016 26.8621 0.828016 27.6061 1.81802C28.5181 3.03002 28.7941 4.38002 28.3621 5.85602C28.3081 6.04202 28.2061 6.10202 28.0261 6.10202C27.0001 6.10202 25.9801 6.10202 24.9541 6.10202C24.6781 6.10202 24.6481 6.04802 24.7921 5.82002C24.8701 5.69402 24.9601 5.58002 25.0501 5.46602C25.5301 4.86002 25.4821 4.05602 24.9361 3.52802C24.3661 2.97602 23.5321 2.94602 22.9561 3.49202C22.3201 4.09202 21.6721 4.69202 21.1021 5.35802C20.5981 5.94602 20.0461 6.16802 19.2781 6.12002C18.1981 6.05402 17.1181 6.09602 16.0321 6.10802C15.7861 6.10802 15.6121 6.03002 15.4441 5.86202C14.7061 5.11202 13.9681 4.36202 13.2121 3.62402C12.5341 2.95802 11.6701 2.94002 11.0581 3.55802C10.5361 4.08602 10.4941 4.85402 10.9561 5.44802C11.0341 5.55002 11.1301 5.63402 11.2081 5.73002C11.2861 5.83202 11.4841 5.89802 11.4181 6.04202C11.3641 6.16202 11.1901 6.10202 11.0701 6.10202C10.1221 6.10202 9.18007 6.10202 8.23207 6.10802C7.97407 6.10802 7.85407 6.03002 7.78207 5.77202C7.06807 3.23402 8.74807 0.564016 11.3701 0.102016C11.4241 0.0900161 11.4841 0.0720161 11.5381 0.0600161C11.9641 0.0600161 12.3961 0.0600161 12.8221 0.0600161C14.0281 0.264016 14.9821 0.894016 15.8041 1.77002C16.4701 2.47802 17.1841 3.15002 17.8621 3.84602C18.0301 4.02002 18.1381 4.01402 18.3121 3.84602C19.0621 3.12002 19.8361 2.42402 20.5741 1.68002C21.3781 0.876016 22.2541 0.228016 23.4061 0.0540161H24.6361V0.0600161Z" fill="#727272"/>
<path d="M10.4221 7.53603C12.3601 7.53603 14.2981 7.53603 16.2361 7.53603C16.6261 7.53603 16.6261 7.53603 16.6321 7.92603C16.6321 9.69003 16.6321 11.46 16.6321 13.224C16.6321 13.5 16.5541 13.602 16.2661 13.602C12.4201 13.596 8.56809 13.602 4.72209 13.596C3.64809 13.596 3.09009 13.014 3.09009 11.934C3.09009 11.004 3.09009 10.08 3.09009 9.15003C3.09009 8.08203 3.64809 7.53603 4.71609 7.53003C6.61809 7.53003 8.51409 7.53003 10.4161 7.53003L10.4221 7.53603Z" fill="#727272"/>
</g>
<defs>
<clipPath id="clip0_25_5086">
<rect width="30" height="30" fill="white" transform="translate(3)"/>
</clipPath>
</defs>
</svg>
