<svg width="58" height="59" viewBox="0 0 58 59" fill="none" xmlns="http://www.w3.org/2000/svg">
<path d="M8.61719 53.4453V55H2.90625V53.4453H8.61719ZM3.45312 43.625V55H1.49219V43.625H3.45312ZM13.6719 55.1562C13.0469 55.1562 12.4818 55.0547 11.9766 54.8516C11.4766 54.6432 11.0495 54.3542 10.6953 53.9844C10.3464 53.6146 10.0781 53.1797 9.89062 52.6797C9.70312 52.1797 9.60938 51.6406 9.60938 51.0625V50.75C9.60938 50.0885 9.70573 49.4896 9.89844 48.9531C10.0911 48.4167 10.3594 47.9583 10.7031 47.5781C11.0469 47.1927 11.4531 46.8984 11.9219 46.6953C12.3906 46.4922 12.8984 46.3906 13.4453 46.3906C14.0495 46.3906 14.5781 46.4922 15.0312 46.6953C15.4844 46.8984 15.8594 47.1849 16.1562 47.5547C16.4583 47.9193 16.6823 48.3542 16.8281 48.8594C16.9792 49.3646 17.0547 49.9219 17.0547 50.5312V51.3359H10.5234V49.9844H15.1953V49.8359C15.1849 49.4974 15.1172 49.1797 14.9922 48.8828C14.8724 48.5859 14.6875 48.3464 14.4375 48.1641C14.1875 47.9818 13.8542 47.8906 13.4375 47.8906C13.125 47.8906 12.8464 47.9583 12.6016 48.0938C12.362 48.224 12.1615 48.4141 12 48.6641C11.8385 48.9141 11.7135 49.2161 11.625 49.5703C11.5417 49.9193 11.5 50.3125 11.5 50.75V51.0625C11.5 51.4323 11.5495 51.776 11.6484 52.0938C11.7526 52.4062 11.9036 52.6797 12.1016 52.9141C12.2995 53.1484 12.5391 53.3333 12.8203 53.4688C13.1016 53.599 13.4219 53.6641 13.7812 53.6641C14.2344 53.6641 14.638 53.5729 14.9922 53.3906C15.3464 53.2083 15.6536 52.9505 15.9141 52.6172L16.9062 53.5781C16.724 53.8438 16.487 54.099 16.1953 54.3438C15.9036 54.5833 15.5469 54.7786 15.125 54.9297C14.7083 55.0807 14.224 55.1562 13.6719 55.1562ZM23.2891 53.3047V49.2734C23.2891 48.9714 23.2344 48.7109 23.125 48.4922C23.0156 48.2734 22.849 48.1042 22.625 47.9844C22.4062 47.8646 22.1302 47.8047 21.7969 47.8047C21.4896 47.8047 21.224 47.8568 21 47.9609C20.776 48.0651 20.6016 48.2057 20.4766 48.3828C20.3516 48.5599 20.2891 48.7604 20.2891 48.9844H18.4141C18.4141 48.651 18.4948 48.3281 18.6562 48.0156C18.8177 47.7031 19.0521 47.4245 19.3594 47.1797C19.6667 46.9349 20.0339 46.7422 20.4609 46.6016C20.888 46.4609 21.3672 46.3906 21.8984 46.3906C22.5339 46.3906 23.0964 46.4974 23.5859 46.7109C24.0807 46.9245 24.4688 47.2474 24.75 47.6797C25.0365 48.1068 25.1797 48.6432 25.1797 49.2891V53.0469C25.1797 53.4323 25.2057 53.7786 25.2578 54.0859C25.3151 54.388 25.3958 54.651 25.5 54.875V55H23.5703C23.4818 54.7969 23.4115 54.5391 23.3594 54.2266C23.3125 53.9089 23.2891 53.6016 23.2891 53.3047ZM23.5625 49.8594L23.5781 51.0234H22.2266C21.8776 51.0234 21.5703 51.0573 21.3047 51.125C21.0391 51.1875 20.8177 51.2812 20.6406 51.4062C20.4635 51.5312 20.3307 51.6823 20.2422 51.8594C20.1536 52.0365 20.1094 52.237 20.1094 52.4609C20.1094 52.6849 20.1615 52.8906 20.2656 53.0781C20.3698 53.2604 20.5208 53.4036 20.7188 53.5078C20.9219 53.612 21.1667 53.6641 21.4531 53.6641C21.8385 53.6641 22.1745 53.5859 22.4609 53.4297C22.7526 53.2682 22.9818 53.0729 23.1484 52.8438C23.3151 52.6094 23.4036 52.388 23.4141 52.1797L24.0234 53.0156C23.9609 53.2292 23.8542 53.4583 23.7031 53.7031C23.5521 53.9479 23.3542 54.1823 23.1094 54.4062C22.8698 54.625 22.5807 54.8047 22.2422 54.9453C21.9089 55.0859 21.5234 55.1562 21.0859 55.1562C20.5339 55.1562 20.0417 55.0469 19.6094 54.8281C19.1771 54.6042 18.8385 54.3047 18.5938 53.9297C18.349 53.5495 18.2266 53.1198 18.2266 52.6406C18.2266 52.1927 18.3099 51.7969 18.4766 51.4531C18.6484 51.1042 18.8984 50.8125 19.2266 50.5781C19.5599 50.3438 19.9661 50.1667 20.4453 50.0469C20.9245 49.9219 21.4714 49.8594 22.0859 49.8594H23.5625ZM32.3047 53.25V43H34.1953V55H32.4844L32.3047 53.25ZM26.8047 50.8672V50.7031C26.8047 50.0625 26.8802 49.4792 27.0312 48.9531C27.1823 48.4219 27.401 47.9661 27.6875 47.5859C27.974 47.2005 28.3229 46.9062 28.7344 46.7031C29.1458 46.4948 29.6094 46.3906 30.125 46.3906C30.6354 46.3906 31.0833 46.4896 31.4688 46.6875C31.8542 46.8854 32.1823 47.1693 32.4531 47.5391C32.724 47.9036 32.9401 48.3411 33.1016 48.8516C33.263 49.3568 33.3776 49.9193 33.4453 50.5391V51.0625C33.3776 51.6667 33.263 52.2188 33.1016 52.7188C32.9401 53.2188 32.724 53.651 32.4531 54.0156C32.1823 54.3802 31.8516 54.6615 31.4609 54.8594C31.0755 55.0573 30.625 55.1562 30.1094 55.1562C29.599 55.1562 29.138 55.0495 28.7266 54.8359C28.3203 54.6224 27.974 54.3229 27.6875 53.9375C27.401 53.5521 27.1823 53.099 27.0312 52.5781C26.8802 52.0521 26.8047 51.4818 26.8047 50.8672ZM28.6875 50.7031V50.8672C28.6875 51.2526 28.7214 51.612 28.7891 51.9453C28.862 52.2786 28.974 52.5729 29.125 52.8281C29.276 53.0781 29.4714 53.276 29.7109 53.4219C29.9557 53.5625 30.2474 53.6328 30.5859 53.6328C31.013 53.6328 31.3646 53.5391 31.6406 53.3516C31.9167 53.1641 32.1328 52.9115 32.2891 52.5938C32.4505 52.2708 32.5599 51.9115 32.6172 51.5156V50.1016C32.5859 49.7943 32.5208 49.5078 32.4219 49.2422C32.3281 48.9766 32.2005 48.7448 32.0391 48.5469C31.8776 48.3438 31.6771 48.1875 31.4375 48.0781C31.2031 47.9635 30.9245 47.9062 30.6016 47.9062C30.2578 47.9062 29.9661 47.9792 29.7266 48.125C29.487 48.2708 29.2891 48.4714 29.1328 48.7266C28.9818 48.9818 28.8698 49.2786 28.7969 49.6172C28.724 49.9557 28.6875 50.3177 28.6875 50.7031ZM39.8906 55.1562C39.2656 55.1562 38.7005 55.0547 38.1953 54.8516C37.6953 54.6432 37.2682 54.3542 36.9141 53.9844C36.5651 53.6146 36.2969 53.1797 36.1094 52.6797C35.9219 52.1797 35.8281 51.6406 35.8281 51.0625V50.75C35.8281 50.0885 35.9245 49.4896 36.1172 48.9531C36.3099 48.4167 36.5781 47.9583 36.9219 47.5781C37.2656 47.1927 37.6719 46.8984 38.1406 46.6953C38.6094 46.4922 39.1172 46.3906 39.6641 46.3906C40.2682 46.3906 40.7969 46.4922 41.25 46.6953C41.7031 46.8984 42.0781 47.1849 42.375 47.5547C42.6771 47.9193 42.901 48.3542 43.0469 48.8594C43.1979 49.3646 43.2734 49.9219 43.2734 50.5312V51.3359H36.7422V49.9844H41.4141V49.8359C41.4036 49.4974 41.3359 49.1797 41.2109 48.8828C41.0911 48.5859 40.9062 48.3464 40.6562 48.1641C40.4062 47.9818 40.0729 47.8906 39.6562 47.8906C39.3438 47.8906 39.0651 47.9583 38.8203 48.0938C38.5807 48.224 38.3802 48.4141 38.2188 48.6641C38.0573 48.9141 37.9323 49.2161 37.8438 49.5703C37.7604 49.9193 37.7188 50.3125 37.7188 50.75V51.0625C37.7188 51.4323 37.7682 51.776 37.8672 52.0938C37.9714 52.4062 38.1224 52.6797 38.3203 52.9141C38.5182 53.1484 38.7578 53.3333 39.0391 53.4688C39.3203 53.599 39.6406 53.6641 40 53.6641C40.4531 53.6641 40.8568 53.5729 41.2109 53.3906C41.5651 53.2083 41.8724 52.9505 42.1328 52.6172L43.125 53.5781C42.9427 53.8438 42.7057 54.099 42.4141 54.3438C42.1224 54.5833 41.7656 54.7786 41.3438 54.9297C40.9271 55.0807 40.4427 55.1562 39.8906 55.1562ZM46.6328 48.1562V55H44.75V46.5469H46.5469L46.6328 48.1562ZM49.2188 46.4922L49.2031 48.2422C49.0885 48.2214 48.9635 48.2057 48.8281 48.1953C48.6979 48.1849 48.5677 48.1797 48.4375 48.1797C48.1146 48.1797 47.8307 48.2266 47.5859 48.3203C47.3411 48.4089 47.1354 48.5391 46.9688 48.7109C46.8073 48.8776 46.6823 49.0807 46.5938 49.3203C46.5052 49.5599 46.4531 49.8281 46.4375 50.125L46.0078 50.1562C46.0078 49.625 46.0599 49.1328 46.1641 48.6797C46.2682 48.2266 46.4245 47.8281 46.6328 47.4844C46.8464 47.1406 47.112 46.8724 47.4297 46.6797C47.7526 46.487 48.125 46.3906 48.5469 46.3906C48.6615 46.3906 48.7839 46.401 48.9141 46.4219C49.0495 46.4427 49.151 46.4661 49.2188 46.4922ZM55.1406 52.7109C55.1406 52.5234 55.0938 52.3542 55 52.2031C54.9062 52.0469 54.7266 51.9062 54.4609 51.7812C54.2005 51.6562 53.8151 51.5417 53.3047 51.4375C52.8568 51.3385 52.4453 51.2214 52.0703 51.0859C51.7005 50.9453 51.3828 50.776 51.1172 50.5781C50.8516 50.3802 50.6458 50.1458 50.5 49.875C50.3542 49.6042 50.2812 49.2917 50.2812 48.9375C50.2812 48.5938 50.3568 48.2682 50.5078 47.9609C50.6589 47.6536 50.875 47.3828 51.1562 47.1484C51.4375 46.9141 51.7786 46.7292 52.1797 46.5938C52.5859 46.4583 53.0391 46.3906 53.5391 46.3906C54.2474 46.3906 54.8542 46.5104 55.3594 46.75C55.8698 46.9844 56.2604 47.3047 56.5312 47.7109C56.8021 48.112 56.9375 48.5651 56.9375 49.0703H55.0547C55.0547 48.8464 54.9974 48.638 54.8828 48.4453C54.7734 48.2474 54.6068 48.0885 54.3828 47.9688C54.1589 47.8438 53.8776 47.7812 53.5391 47.7812C53.2161 47.7812 52.9479 47.8333 52.7344 47.9375C52.526 48.0365 52.3698 48.1667 52.2656 48.3281C52.1667 48.4896 52.1172 48.6667 52.1172 48.8594C52.1172 49 52.1432 49.1276 52.1953 49.2422C52.2526 49.3516 52.3464 49.4531 52.4766 49.5469C52.6068 49.6354 52.7839 49.7188 53.0078 49.7969C53.237 49.875 53.5234 49.9505 53.8672 50.0234C54.513 50.1589 55.0677 50.3333 55.5312 50.5469C56 50.7552 56.3594 51.026 56.6094 51.3594C56.8594 51.6875 56.9844 52.1042 56.9844 52.6094C56.9844 52.9844 56.9036 53.3281 56.7422 53.6406C56.5859 53.9479 56.3568 54.2161 56.0547 54.4453C55.7526 54.6693 55.3906 54.8438 54.9688 54.9688C54.5521 55.0938 54.0833 55.1562 53.5625 55.1562C52.7969 55.1562 52.1484 55.0208 51.6172 54.75C51.0859 54.474 50.6823 54.1224 50.4062 53.6953C50.1354 53.263 50 52.8151 50 52.3516H51.8203C51.8411 52.7005 51.9375 52.9792 52.1094 53.1875C52.2865 53.3906 52.5052 53.5391 52.7656 53.6328C53.0312 53.7214 53.3047 53.7656 53.5859 53.7656C53.9245 53.7656 54.2083 53.7214 54.4375 53.6328C54.6667 53.5391 54.8411 53.4141 54.9609 53.2578C55.0807 53.0964 55.1406 52.9141 55.1406 52.7109Z" fill="#727272"/>
<g clip-path="url(#clip0_25_5089)">
<path d="M21.002 16.494H15.338C14.599 16.494 14 17.0931 14 17.832V28.662C14 29.401 14.599 30 15.338 30H21.002C21.741 30 22.34 29.401 22.34 28.662V17.832C22.34 17.0931 21.741 16.494 21.002 16.494Z" fill="#727272"/>
<path d="M31.8321 9.13202H26.1681C25.4291 9.13202 24.8301 9.73106 24.8301 10.47V28.662C24.8301 29.401 25.4291 30 26.1681 30H31.8321C32.571 30 33.1701 29.401 33.1701 28.662V10.47C33.1701 9.73106 32.571 9.13202 31.8321 9.13202Z" fill="#727272"/>
<path d="M42.6619 0H36.9979C36.259 0 35.6599 0.599043 35.6599 1.338V28.662C35.6599 29.401 36.259 30 36.9979 30H42.6619C43.4009 30 43.9999 29.401 43.9999 28.662V1.338C43.9999 0.599043 43.4009 0 42.6619 0Z" fill="#727272"/>
</g>
<defs>
<clipPath id="clip0_25_5089">
<rect width="30" height="30" fill="white" transform="translate(14)"/>
</clipPath>
</defs>
</svg>
