<svg width="56" height="66" viewBox="0 0 56 66" fill="none" xmlns="http://www.w3.org/2000/svg">
<path d="M2.26562 50.625H4.01562L7.30469 59.3984L10.5859 50.625H12.3359L7.99219 62H6.60156L2.26562 50.625ZM1.46875 50.625H3.13281L3.42188 58.2188V62H1.46875V50.625ZM11.4688 50.625H13.1406V62H11.1797V58.2188L11.4688 50.625ZM20.0469 60.3047V56.2734C20.0469 55.9714 19.9922 55.7109 19.8828 55.4922C19.7734 55.2734 19.6068 55.1042 19.3828 54.9844C19.1641 54.8646 18.888 54.8047 18.5547 54.8047C18.2474 54.8047 17.9818 54.8568 17.7578 54.9609C17.5339 55.0651 17.3594 55.2057 17.2344 55.3828C17.1094 55.5599 17.0469 55.7604 17.0469 55.9844H15.1719C15.1719 55.651 15.2526 55.3281 15.4141 55.0156C15.5755 54.7031 15.8099 54.4245 16.1172 54.1797C16.4245 53.9349 16.7917 53.7422 17.2188 53.6016C17.6458 53.4609 18.125 53.3906 18.6562 53.3906C19.2917 53.3906 19.8542 53.4974 20.3438 53.7109C20.8385 53.9245 21.2266 54.2474 21.5078 54.6797C21.7943 55.1068 21.9375 55.6432 21.9375 56.2891V60.0469C21.9375 60.4323 21.9635 60.7786 22.0156 61.0859C22.0729 61.388 22.1536 61.651 22.2578 61.875V62H20.3281C20.2396 61.7969 20.1693 61.5391 20.1172 61.2266C20.0703 60.9089 20.0469 60.6016 20.0469 60.3047ZM20.3203 56.8594L20.3359 58.0234H18.9844C18.6354 58.0234 18.3281 58.0573 18.0625 58.125C17.7969 58.1875 17.5755 58.2812 17.3984 58.4062C17.2214 58.5312 17.0885 58.6823 17 58.8594C16.9115 59.0365 16.8672 59.237 16.8672 59.4609C16.8672 59.6849 16.9193 59.8906 17.0234 60.0781C17.1276 60.2604 17.2786 60.4036 17.4766 60.5078C17.6797 60.612 17.9245 60.6641 18.2109 60.6641C18.5964 60.6641 18.9323 60.5859 19.2188 60.4297C19.5104 60.2682 19.7396 60.0729 19.9062 59.8438C20.0729 59.6094 20.1615 59.388 20.1719 59.1797L20.7812 60.0156C20.7188 60.2292 20.612 60.4583 20.4609 60.7031C20.3099 60.9479 20.112 61.1823 19.8672 61.4062C19.6276 61.625 19.3385 61.8047 19 61.9453C18.6667 62.0859 18.2812 62.1562 17.8438 62.1562C17.2917 62.1562 16.7995 62.0469 16.3672 61.8281C15.9349 61.6042 15.5964 61.3047 15.3516 60.9297C15.1068 60.5495 14.9844 60.1198 14.9844 59.6406C14.9844 59.1927 15.0677 58.7969 15.2344 58.4531C15.4062 58.1042 15.6562 57.8125 15.9844 57.5781C16.3177 57.3438 16.724 57.1667 17.2031 57.0469C17.6823 56.9219 18.2292 56.8594 18.8438 56.8594H20.3203ZM25.7969 55.1562V62H23.9141V53.5469H25.7109L25.7969 55.1562ZM28.3828 53.4922L28.3672 55.2422C28.2526 55.2214 28.1276 55.2057 27.9922 55.1953C27.862 55.1849 27.7318 55.1797 27.6016 55.1797C27.2786 55.1797 26.9948 55.2266 26.75 55.3203C26.5052 55.4089 26.2995 55.5391 26.1328 55.7109C25.9714 55.8776 25.8464 56.0807 25.7578 56.3203C25.6693 56.5599 25.6172 56.8281 25.6016 57.125L25.1719 57.1562C25.1719 56.625 25.224 56.1328 25.3281 55.6797C25.4323 55.2266 25.5885 54.8281 25.7969 54.4844C26.0104 54.1406 26.276 53.8724 26.5938 53.6797C26.9167 53.487 27.2891 53.3906 27.7109 53.3906C27.8255 53.3906 27.9479 53.401 28.0781 53.4219C28.2135 53.4427 28.3151 53.4661 28.3828 53.4922ZM31.4609 50V62H29.5703V50H31.4609ZM36.7109 53.5469L33.0312 57.625L31.0156 59.6875L30.5234 58.0938L32.0469 56.2109L34.4375 53.5469H36.7109ZM34.8438 62L32.1016 58.0312L33.2891 56.7109L37.0234 62H34.8438ZM41.4766 62.1562C40.8516 62.1562 40.2865 62.0547 39.7812 61.8516C39.2812 61.6432 38.8542 61.3542 38.5 60.9844C38.151 60.6146 37.8828 60.1797 37.6953 59.6797C37.5078 59.1797 37.4141 58.6406 37.4141 58.0625V57.75C37.4141 57.0885 37.5104 56.4896 37.7031 55.9531C37.8958 55.4167 38.1641 54.9583 38.5078 54.5781C38.8516 54.1927 39.2578 53.8984 39.7266 53.6953C40.1953 53.4922 40.7031 53.3906 41.25 53.3906C41.8542 53.3906 42.3828 53.4922 42.8359 53.6953C43.2891 53.8984 43.6641 54.1849 43.9609 54.5547C44.263 54.9193 44.487 55.3542 44.6328 55.8594C44.7839 56.3646 44.8594 56.9219 44.8594 57.5312V58.3359H38.3281V56.9844H43V56.8359C42.9896 56.4974 42.9219 56.1797 42.7969 55.8828C42.6771 55.5859 42.4922 55.3464 42.2422 55.1641C41.9922 54.9818 41.6589 54.8906 41.2422 54.8906C40.9297 54.8906 40.651 54.9583 40.4062 55.0938C40.1667 55.224 39.9661 55.4141 39.8047 55.6641C39.6432 55.9141 39.5182 56.2161 39.4297 56.5703C39.3464 56.9193 39.3047 57.3125 39.3047 57.75V58.0625C39.3047 58.4323 39.3542 58.776 39.4531 59.0938C39.5573 59.4062 39.7083 59.6797 39.9062 59.9141C40.1042 60.1484 40.3438 60.3333 40.625 60.4688C40.9062 60.599 41.2266 60.6641 41.5859 60.6641C42.0391 60.6641 42.4427 60.5729 42.7969 60.3906C43.151 60.2083 43.4583 59.9505 43.7188 59.6172L44.7109 60.5781C44.5286 60.8438 44.2917 61.099 44 61.3438C43.7083 61.5833 43.3516 61.7786 42.9297 61.9297C42.513 62.0807 42.0286 62.1562 41.4766 62.1562ZM50.2031 53.5469V54.9219H45.4375V53.5469H50.2031ZM46.8125 51.4766H48.6953V59.6641C48.6953 59.9245 48.7318 60.125 48.8047 60.2656C48.8828 60.401 48.9896 60.4922 49.125 60.5391C49.2604 60.5859 49.4193 60.6094 49.6016 60.6094C49.7318 60.6094 49.8568 60.6016 49.9766 60.5859C50.0964 60.5703 50.1927 60.5547 50.2656 60.5391L50.2734 61.9766C50.1172 62.0234 49.9349 62.0651 49.7266 62.1016C49.5234 62.138 49.2891 62.1562 49.0234 62.1562C48.5911 62.1562 48.2083 62.0807 47.875 61.9297C47.5417 61.7734 47.2812 61.5208 47.0938 61.1719C46.9062 60.8229 46.8125 60.3594 46.8125 59.7812V51.4766Z" fill="#727272"/>
<path d="M38.7066 14.2302H35.6984V9.6644C35.6984 4.3364 31.3351 0 25.9739 0C20.6128 0 16.2494 4.3364 16.2494 9.6644V14.2302H13.3008C12.0276 14.2302 11 15.2514 11 16.5168V34.7134C11 35.9788 12.0276 37 13.3008 37H38.6992C39.9724 37 41 35.9788 41 34.7134V16.5168C41 15.2514 39.9724 14.2302 38.6992 14.2302H38.7066ZM19.9799 9.6644C19.9799 6.3788 22.6679 3.7 25.9814 3.7C29.2949 3.7 31.9829 6.3714 31.9829 9.6644V14.2302H19.9873V9.6644H19.9799ZM35.6984 18.8996C35.6984 24.3904 31.067 28.823 25.4899 28.5492C20.2703 28.2902 16.2569 23.8132 16.2569 18.6184C16.2569 17.6712 17.0313 16.8942 17.9918 16.8942H18.2524C19.2055 16.8942 19.9799 17.6638 19.9799 18.6184V18.8996C19.9799 22.3184 22.8987 25.0786 26.3909 24.8492C29.5778 24.6346 31.9829 21.867 31.9829 18.6924V18.6258C31.9829 17.6786 32.7573 16.9016 33.7103 16.9016H33.971C34.924 16.9016 35.6984 17.6712 35.6984 18.6258V18.907V18.8996Z" fill="#727272"/>
</svg>
