<svg width="98" height="59" viewBox="0 0 98 59" fill="none" xmlns="http://www.w3.org/2000/svg">
<path d="M2.03125 43.625H3.78125L7.07031 52.3984L10.3516 43.625H12.1016L7.75781 55H6.36719L2.03125 43.625ZM1.23438 43.625H2.89844L3.1875 51.2188V55H1.23438V43.625ZM11.2344 43.625H12.9062V55H10.9453V51.2188L11.2344 43.625ZM17.5 54.0781L19.7969 46.5469H21.8125L18.4219 56.2891C18.3438 56.4974 18.2422 56.724 18.1172 56.9688C17.9922 57.2135 17.8281 57.4453 17.625 57.6641C17.4271 57.888 17.1797 58.0677 16.8828 58.2031C16.5859 58.3438 16.2266 58.4141 15.8047 58.4141C15.638 58.4141 15.4766 58.3984 15.3203 58.3672C15.1693 58.3411 15.026 58.3125 14.8906 58.2812L14.8828 56.8438C14.9349 56.849 14.9974 56.8542 15.0703 56.8594C15.1484 56.8646 15.2109 56.8672 15.2578 56.8672C15.5703 56.8672 15.8307 56.8281 16.0391 56.75C16.2474 56.6771 16.4167 56.5573 16.5469 56.3906C16.6823 56.224 16.7969 56 16.8906 55.7188L17.5 54.0781ZM16.2031 46.5469L18.2109 52.875L18.5469 54.8594L17.2422 55.1953L14.1719 46.5469H16.2031ZM33.7812 51.2969H35.7344C35.6719 52.0417 35.4635 52.7057 35.1094 53.2891C34.7552 53.8672 34.2578 54.3229 33.6172 54.6562C32.9766 54.9896 32.1979 55.1562 31.2812 55.1562C30.5781 55.1562 29.9453 55.0312 29.3828 54.7812C28.8203 54.526 28.3385 54.1667 27.9375 53.7031C27.5365 53.2344 27.2292 52.6693 27.0156 52.0078C26.8073 51.3464 26.7031 50.6068 26.7031 49.7891V48.8438C26.7031 48.026 26.8099 47.2865 27.0234 46.625C27.2422 45.9635 27.5547 45.3984 27.9609 44.9297C28.3672 44.4557 28.8542 44.0938 29.4219 43.8438C29.9948 43.5938 30.638 43.4688 31.3516 43.4688C32.2578 43.4688 33.0234 43.6354 33.6484 43.9688C34.2734 44.3021 34.7578 44.763 35.1016 45.3516C35.4505 45.9401 35.6641 46.6146 35.7422 47.375H33.7891C33.737 46.8854 33.6224 46.4661 33.4453 46.1172C33.2734 45.7682 33.0182 45.5026 32.6797 45.3203C32.3411 45.1328 31.8984 45.0391 31.3516 45.0391C30.9036 45.0391 30.513 45.1224 30.1797 45.2891C29.8464 45.4557 29.5677 45.7005 29.3438 46.0234C29.1198 46.3464 28.9505 46.7448 28.8359 47.2188C28.7266 47.6875 28.6719 48.224 28.6719 48.8281V49.7891C28.6719 50.362 28.7214 50.8828 28.8203 51.3516C28.9245 51.8151 29.0807 52.2135 29.2891 52.5469C29.5026 52.8802 29.7734 53.138 30.1016 53.3203C30.4297 53.5026 30.8229 53.5938 31.2812 53.5938C31.8385 53.5938 32.2891 53.5052 32.6328 53.3281C32.9818 53.151 33.2448 52.8932 33.4219 52.5547C33.6042 52.2109 33.724 51.7917 33.7812 51.2969ZM36.9688 50.8672V50.6875C36.9688 50.0781 37.0573 49.513 37.2344 48.9922C37.4115 48.4661 37.6667 48.0104 38 47.625C38.3385 47.2344 38.75 46.9323 39.2344 46.7188C39.724 46.5 40.276 46.3906 40.8906 46.3906C41.5104 46.3906 42.0625 46.5 42.5469 46.7188C43.0365 46.9323 43.4505 47.2344 43.7891 47.625C44.1276 48.0104 44.3854 48.4661 44.5625 48.9922C44.7396 49.513 44.8281 50.0781 44.8281 50.6875V50.8672C44.8281 51.4766 44.7396 52.0417 44.5625 52.5625C44.3854 53.0833 44.1276 53.5391 43.7891 53.9297C43.4505 54.3151 43.0391 54.6172 42.5547 54.8359C42.0703 55.0495 41.5208 55.1562 40.9062 55.1562C40.2865 55.1562 39.7318 55.0495 39.2422 54.8359C38.7578 54.6172 38.3464 54.3151 38.0078 53.9297C37.6693 53.5391 37.4115 53.0833 37.2344 52.5625C37.0573 52.0417 36.9688 51.4766 36.9688 50.8672ZM38.8516 50.6875V50.8672C38.8516 51.2474 38.8906 51.6068 38.9688 51.9453C39.0469 52.2839 39.1693 52.5807 39.3359 52.8359C39.5026 53.0911 39.7161 53.2917 39.9766 53.4375C40.237 53.5833 40.5469 53.6562 40.9062 53.6562C41.2552 53.6562 41.5573 53.5833 41.8125 53.4375C42.0729 53.2917 42.2865 53.0911 42.4531 52.8359C42.6198 52.5807 42.7422 52.2839 42.8203 51.9453C42.9036 51.6068 42.9453 51.2474 42.9453 50.8672V50.6875C42.9453 50.3125 42.9036 49.9583 42.8203 49.625C42.7422 49.2865 42.6172 48.987 42.4453 48.7266C42.2786 48.4661 42.0651 48.263 41.8047 48.1172C41.5495 47.9661 41.2448 47.8906 40.8906 47.8906C40.5365 47.8906 40.2292 47.9661 39.9688 48.1172C39.7135 48.263 39.5026 48.4661 39.3359 48.7266C39.1693 48.987 39.0469 49.2865 38.9688 49.625C38.8906 49.9583 38.8516 50.3125 38.8516 50.6875ZM48.4219 43V55H46.5312V43H48.4219ZM52.5 43V55H50.6094V43H52.5ZM58.2891 55.1562C57.6641 55.1562 57.099 55.0547 56.5938 54.8516C56.0938 54.6432 55.6667 54.3542 55.3125 53.9844C54.9635 53.6146 54.6953 53.1797 54.5078 52.6797C54.3203 52.1797 54.2266 51.6406 54.2266 51.0625V50.75C54.2266 50.0885 54.3229 49.4896 54.5156 48.9531C54.7083 48.4167 54.9766 47.9583 55.3203 47.5781C55.6641 47.1927 56.0703 46.8984 56.5391 46.6953C57.0078 46.4922 57.5156 46.3906 58.0625 46.3906C58.6667 46.3906 59.1953 46.4922 59.6484 46.6953C60.1016 46.8984 60.4766 47.1849 60.7734 47.5547C61.0755 47.9193 61.2995 48.3542 61.4453 48.8594C61.5964 49.3646 61.6719 49.9219 61.6719 50.5312V51.3359H55.1406V49.9844H59.8125V49.8359C59.8021 49.4974 59.7344 49.1797 59.6094 48.8828C59.4896 48.5859 59.3047 48.3464 59.0547 48.1641C58.8047 47.9818 58.4714 47.8906 58.0547 47.8906C57.7422 47.8906 57.4635 47.9583 57.2188 48.0938C56.9792 48.224 56.7786 48.4141 56.6172 48.6641C56.4557 48.9141 56.3307 49.2161 56.2422 49.5703C56.1589 49.9193 56.1172 50.3125 56.1172 50.75V51.0625C56.1172 51.4323 56.1667 51.776 56.2656 52.0938C56.3698 52.4062 56.5208 52.6797 56.7188 52.9141C56.9167 53.1484 57.1562 53.3333 57.4375 53.4688C57.7188 53.599 58.0391 53.6641 58.3984 53.6641C58.8516 53.6641 59.2552 53.5729 59.6094 53.3906C59.9635 53.2083 60.2708 52.9505 60.5312 52.6172L61.5234 53.5781C61.3411 53.8438 61.1042 54.099 60.8125 54.3438C60.5208 54.5833 60.1641 54.7786 59.7422 54.9297C59.3255 55.0807 58.8411 55.1562 58.2891 55.1562ZM66.5938 53.6562C66.901 53.6562 67.1771 53.5964 67.4219 53.4766C67.6719 53.3516 67.8724 53.1797 68.0234 52.9609C68.1797 52.7422 68.2656 52.4896 68.2812 52.2031H70.0547C70.0443 52.75 69.8828 53.2474 69.5703 53.6953C69.2578 54.1432 68.8438 54.5 68.3281 54.7656C67.8125 55.026 67.2422 55.1562 66.6172 55.1562C65.9714 55.1562 65.4089 55.0469 64.9297 54.8281C64.4505 54.6042 64.0521 54.2969 63.7344 53.9062C63.4167 53.5156 63.1771 53.0651 63.0156 52.5547C62.8594 52.0443 62.7812 51.4974 62.7812 50.9141V50.6406C62.7812 50.0573 62.8594 49.5104 63.0156 49C63.1771 48.4844 63.4167 48.0312 63.7344 47.6406C64.0521 47.25 64.4505 46.9453 64.9297 46.7266C65.4089 46.5026 65.9688 46.3906 66.6094 46.3906C67.2865 46.3906 67.8802 46.526 68.3906 46.7969C68.901 47.0625 69.3021 47.4349 69.5938 47.9141C69.8906 48.388 70.0443 48.9401 70.0547 49.5703H68.2812C68.2656 49.2578 68.1875 48.9766 68.0469 48.7266C67.9115 48.4714 67.7188 48.2682 67.4688 48.1172C67.224 47.9661 66.9297 47.8906 66.5859 47.8906C66.2057 47.8906 65.8906 47.9688 65.6406 48.125C65.3906 48.276 65.1953 48.4844 65.0547 48.75C64.9141 49.0104 64.8125 49.3047 64.75 49.6328C64.6927 49.9557 64.6641 50.2917 64.6641 50.6406V50.9141C64.6641 51.263 64.6927 51.6016 64.75 51.9297C64.8073 52.2578 64.9062 52.5521 65.0469 52.8125C65.1927 53.0677 65.3906 53.2734 65.6406 53.4297C65.8906 53.5807 66.2083 53.6562 66.5938 53.6562ZM75.375 46.5469V47.9219H70.6094V46.5469H75.375ZM71.9844 44.4766H73.8672V52.6641C73.8672 52.9245 73.9036 53.125 73.9766 53.2656C74.0547 53.401 74.1615 53.4922 74.2969 53.5391C74.4323 53.5859 74.5911 53.6094 74.7734 53.6094C74.9036 53.6094 75.0286 53.6016 75.1484 53.5859C75.2682 53.5703 75.3646 53.5547 75.4375 53.5391L75.4453 54.9766C75.2891 55.0234 75.1068 55.0651 74.8984 55.1016C74.6953 55.138 74.4609 55.1562 74.1953 55.1562C73.763 55.1562 73.3802 55.0807 73.0469 54.9297C72.7135 54.7734 72.4531 54.5208 72.2656 54.1719C72.0781 53.8229 71.9844 53.3594 71.9844 52.7812V44.4766ZM78.8438 46.5469V55H76.9531V46.5469H78.8438ZM76.8281 44.3281C76.8281 44.0417 76.9219 43.8047 77.1094 43.6172C77.3021 43.4245 77.5677 43.3281 77.9062 43.3281C78.2396 43.3281 78.5026 43.4245 78.6953 43.6172C78.888 43.8047 78.9844 44.0417 78.9844 44.3281C78.9844 44.6094 78.888 44.8438 78.6953 45.0312C78.5026 45.2188 78.2396 45.3125 77.9062 45.3125C77.5677 45.3125 77.3021 45.2188 77.1094 45.0312C76.9219 44.8438 76.8281 44.6094 76.8281 44.3281ZM80.5469 50.8672V50.6875C80.5469 50.0781 80.6354 49.513 80.8125 48.9922C80.9896 48.4661 81.2448 48.0104 81.5781 47.625C81.9167 47.2344 82.3281 46.9323 82.8125 46.7188C83.3021 46.5 83.8542 46.3906 84.4688 46.3906C85.0885 46.3906 85.6406 46.5 86.125 46.7188C86.6146 46.9323 87.0286 47.2344 87.3672 47.625C87.7057 48.0104 87.9635 48.4661 88.1406 48.9922C88.3177 49.513 88.4062 50.0781 88.4062 50.6875V50.8672C88.4062 51.4766 88.3177 52.0417 88.1406 52.5625C87.9635 53.0833 87.7057 53.5391 87.3672 53.9297C87.0286 54.3151 86.6172 54.6172 86.1328 54.8359C85.6484 55.0495 85.099 55.1562 84.4844 55.1562C83.8646 55.1562 83.3099 55.0495 82.8203 54.8359C82.3359 54.6172 81.9245 54.3151 81.5859 53.9297C81.2474 53.5391 80.9896 53.0833 80.8125 52.5625C80.6354 52.0417 80.5469 51.4766 80.5469 50.8672ZM82.4297 50.6875V50.8672C82.4297 51.2474 82.4688 51.6068 82.5469 51.9453C82.625 52.2839 82.7474 52.5807 82.9141 52.8359C83.0807 53.0911 83.2943 53.2917 83.5547 53.4375C83.8151 53.5833 84.125 53.6562 84.4844 53.6562C84.8333 53.6562 85.1354 53.5833 85.3906 53.4375C85.651 53.2917 85.8646 53.0911 86.0312 52.8359C86.1979 52.5807 86.3203 52.2839 86.3984 51.9453C86.4818 51.6068 86.5234 51.2474 86.5234 50.8672V50.6875C86.5234 50.3125 86.4818 49.9583 86.3984 49.625C86.3203 49.2865 86.1953 48.987 86.0234 48.7266C85.8568 48.4661 85.6432 48.263 85.3828 48.1172C85.1276 47.9661 84.8229 47.8906 84.4688 47.8906C84.1146 47.8906 83.8073 47.9661 83.5469 48.1172C83.2917 48.263 83.0807 48.4661 82.9141 48.7266C82.7474 48.987 82.625 49.2865 82.5469 49.625C82.4688 49.9583 82.4297 50.3125 82.4297 50.6875ZM91.8516 48.3516V55H89.9688V46.5469H91.7422L91.8516 48.3516ZM91.5156 50.4609L90.9062 50.4531C90.9115 49.8542 90.9948 49.3047 91.1562 48.8047C91.3229 48.3047 91.5521 47.875 91.8438 47.5156C92.1406 47.1562 92.4948 46.8802 92.9062 46.6875C93.3177 46.4896 93.776 46.3906 94.2812 46.3906C94.6875 46.3906 95.0547 46.4479 95.3828 46.5625C95.7161 46.6719 96 46.8516 96.2344 47.1016C96.474 47.3516 96.6562 47.6771 96.7812 48.0781C96.9062 48.474 96.9688 48.9609 96.9688 49.5391V55H95.0781V49.5312C95.0781 49.125 95.0182 48.8047 94.8984 48.5703C94.7839 48.3307 94.6146 48.1615 94.3906 48.0625C94.1719 47.9583 93.8984 47.9062 93.5703 47.9062C93.2474 47.9062 92.9583 47.974 92.7031 48.1094C92.4479 48.2448 92.2318 48.4297 92.0547 48.6641C91.8828 48.8984 91.75 49.1693 91.6562 49.4766C91.5625 49.7839 91.5156 50.112 91.5156 50.4609Z" fill="#727272"/>
<g clip-path="url(#clip0_25_5087)">
<path d="M48.1481 21.87L40.3721 29.766C39.8981 30.252 39.0701 29.91 39.0701 29.232V1.356C39.0701 0.606 39.6761 0 40.4261 0H57.5741C58.3241 0 58.9301 0.606 58.9301 1.356V29.238C58.9301 29.916 58.1081 30.258 57.6281 29.772L49.8521 21.876C49.3841 21.396 48.6101 21.396 48.1421 21.876L48.1481 21.87Z" fill="#727272"/>
</g>
<defs>
<clipPath id="clip0_25_5087">
<rect width="30" height="30" fill="white" transform="translate(34)"/>
</clipPath>
</defs>
</svg>
