<svg width="28" height="26" viewBox="0 0 28 26" fill="none" xmlns="http://www.w3.org/2000/svg">
<path d="M27.5931 11.175C28.3909 10.4212 27.9483 9.10478 26.85 8.95084L19.5005 7.91045C19.0633 7.84675 18.6863 7.58134 18.4896 7.19916L15.2055 0.728542C14.7137 -0.242847 13.2876 -0.242847 12.7958 0.728542L9.50627 7.19385C9.30955 7.58134 8.93252 7.84675 8.49537 7.90514L1.15136 8.94554C0.0475675 9.09947 -0.389576 10.4159 0.408211 11.1696L2.50104 13.1814C3.45183 14.0944 4.77419 14.535 6.10201 14.3864L12.8559 13.6167C13.4132 13.553 13.6865 14.259 13.2275 14.5669L8.28773 17.8844C6.88887 18.824 5.89437 20.2359 5.50094 21.8443L4.85069 24.4718C4.6649 25.5388 5.8124 26.3509 6.80144 25.8466L13.375 22.4919C13.7684 22.2902 14.2329 22.2902 14.6263 22.4919L21.1999 25.8466C22.1834 26.3509 23.3364 25.5388 23.1506 24.4718L21.8938 17.3642C21.8173 16.9396 21.9649 16.5096 22.2818 16.2071L27.5931 11.175Z" fill="white"/>
</svg>
