<svg width="22" height="22" viewBox="0 0 22 22" fill="none" xmlns="http://www.w3.org/2000/svg">
<path d="M21.6782 9.45309C22.305 8.84427 21.9573 7.78098 21.0944 7.65665L15.3208 6.8163C14.9774 6.76485 14.6812 6.55048 14.5266 6.24178L11.9467 1.01536C11.5604 0.230759 10.44 0.230759 10.0537 1.01536L7.46947 6.2375C7.31493 6.55048 7.01874 6.76485 6.67532 6.81202L0.905955 7.65236C0.0388332 7.7767 -0.304581 8.83999 0.32215 9.44881L1.96625 11.0738C2.71317 11.8112 3.752 12.1671 4.79513 12.047L10.1009 11.4253C10.5387 11.3739 10.7534 11.9441 10.3928 12.1928L6.5122 14.8724C5.41327 15.6313 4.632 16.7718 4.32293 18.0709L3.8121 20.1932C3.66615 21.055 4.56761 21.711 5.34459 21.3036L10.5087 18.594C10.8178 18.431 11.1826 18.431 11.4917 18.594L16.6558 21.3036C17.4285 21.711 18.3342 21.055 18.1883 20.1932L17.201 14.4523C17.1409 14.1093 17.2568 13.762 17.5058 13.5176L21.6782 9.45309Z" fill="url(#paint0_linear_135_10257)"/>
<defs>
<linearGradient id="paint0_linear_135_10257" x1="0.00146484" y1="10.9272" x2="21.9979" y2="10.9272" gradientUnits="userSpaceOnUse">
<stop stop-color="#FEB701"/>
<stop offset="1" stop-color="#FF7000"/>
</linearGradient>
</defs>
</svg>
